<svg xmlns="http://www.w3.org/2000/svg" viewBox="0 -960 960 960" height="20" width="20" focusable="false" class="USdSqf T-I-J3 J-J5-Ji rf4fmb aoH"><path d="M614-310l51-51L516-510V-720H444v240L614-310ZM480-96q-79.38,0-149.19-30T208.5-208.5T126-330.96T96-480.46T126-630t82.5-122t122.46-82t149.5-30t149.55,30.24T751.8-751.68t81.99,121.92T864-480q0,79.38-30,149.19T752-208.5T629.87-126T480-96Zm0-384Zm0.48,312q129.48,0 220.5-91.5T792-480.48t-91.02-220.5T480.48-792T259.5-700.98T168-480.48T259.5-259.5T480.48-168Z"/></svg>